# xmcd
#
# Track frame offsets:
# 150
# 15510
# 25628
# 40655
# 52718
# 69138
# 88820
# 105233
# 117538
# 128443
# 143898
# 156995
# 169598
# 183405
# 197705
# 213120
# 230525
# 245725
#
# Disc length: 3459 seconds
#
# Revision: 0
# Processed by: cddbd v1.4PL0 Copyright (c) Steve Scherf et al.
# Submitted via: Axialis_AX_CDPlayer 2.6
#
DISCID=e00d8112
DTITLE=Divers - Vive la Fête
DYEAR=1900
DGENRE=
TTITLE0=Eso es el amor
TTITLE1=Barracuda
TTITLE2=Sombreros et mantilles
TTITLE3=El gato montes
TTITLE4=Besame mucho
TTITLE5=Guantanamera
TTITLE6=Maladie d'Amour
TTITLE7=Le plus beau tango du monde
TTITLE8=Tango bleu
TTITLE9=Bleu Eyes
TTITLE10=Yesterday
TTITLE11=El relicario
TTITLE12=Only You
TTITLE13=Sans chemise , sans pantalon
TTITLE14=Mi jaca
TTITLE15=A whiter shade of pale
TTITLE16=Jalousie
TTITLE17=Tango de el choclo
EXTD=Avec Sergio Gonzalves Orchestra
EXTT0=Iglesias - Salvet
EXTT1=R. Patline - A.Sensor
EXTT2=Chanty - Vaissade
EXTT3=M. Penella
EXTT4=Velasquez
EXTT5=R. Patline - A. Sensor
EXTT6=H. Salvador
EXTT7=V. Scotto
EXTT8=L. Anderson
EXTT9=E. John - Osborne
EXTT10=J. Lennon - Mc Cartney
EXTT11=J. Padilla
EXTT12=B. Ram - A. Rand
EXTT13=G. Stifford - A. Sensor
EXTT14=R. Penella - J. Mostazo
EXTT15=Brook - Reid
EXTT16=J. Gade
EXTT17=G. Stifford - A. Sensor
PLAYORDER=
